<svg width="53" height="53" viewBox="0 0 53 53" fill="none" xmlns="http://www.w3.org/2000/svg">
<g filter="url(#filter0_d_1_760)">
<path d="M34.4697 12.9697L27.0606 20.3787L28.1213 21.4394L35.5303 14.0303C35.8232 13.7374 35.8232 13.2626 35.5303 12.9697C35.2374 12.6768 34.7626 12.6768 34.4697 12.9697Z" fill="#9F65FF"/>
<path d="M23.8786 23.5607L24.9393 24.6214L24.0389 25.5218C24.5472 26.2465 24.8252 27.1151 24.8252 28.0124C24.8252 28.7554 24.6345 29.4787 24.2804 30.1169C24.0075 30.6086 23.5283 30.8534 23.0496 30.8743C22.5867 30.8944 22.125 30.7101 21.7871 30.3722L21.4392 30.0244L20.3844 31.0792C19.5662 31.8974 18.2395 31.8974 17.4213 31.0792C16.6031 30.261 16.6031 28.9343 17.4213 28.1161L18.4761 27.0612L18.1281 26.7132C17.7901 26.3753 17.6058 25.9135 17.626 25.4506C17.6468 24.9719 17.8916 24.4927 18.3833 24.2199C19.0215 23.8657 19.7449 23.675 20.4879 23.675C21.385 23.675 22.2535 23.953 22.9782 24.4612L23.8786 23.5607Z" fill="#9F65FF"/>
<path d="M16.9697 14.5303C16.6768 14.2374 16.6768 13.7626 16.9697 13.4697C17.2626 13.1768 17.7374 13.1768 18.0303 13.4697L29.0219 24.4613C29.7467 23.9529 30.6153 23.6749 31.5126 23.6749C32.2556 23.6749 32.9789 23.8656 33.6171 24.2197C34.1088 24.4926 34.3536 24.9718 34.3745 25.4505C34.3947 25.9134 34.2103 26.3751 33.8724 26.7131L33.524 27.0614L34.5787 28.1161C35.3969 28.9343 35.3969 30.261 34.5787 31.0792C33.7605 31.8974 32.4338 31.8974 31.6156 31.0792L30.5609 30.0245L30.2134 30.3721C29.8755 30.71 29.4137 30.8943 28.9508 30.8741C28.4721 30.8533 27.9929 30.6085 27.7201 30.1168C27.3659 29.4786 27.1753 28.7552 27.1753 28.0122C27.1753 27.1151 27.4532 26.2467 27.9613 25.522L16.9697 14.5303Z" fill="#9F65FF"/>
</g>
<defs>
<filter id="filter0_d_1_760" x="-2.6" y="-2.1" width="57.2" height="57.2" filterUnits="userSpaceOnUse" color-interpolation-filters="sRGB">
<feFlood flood-opacity="0" result="BackgroundImageFix"/>
<feColorMatrix in="SourceAlpha" type="matrix" values="0 0 0 0 0 0 0 0 0 0 0 0 0 0 0 0 0 0 127 0" result="hardAlpha"/>
<feOffset dy="4"/>
<feGaussianBlur stdDeviation="8.3"/>
<feComposite in2="hardAlpha" operator="out"/>
<feColorMatrix type="matrix" values="0 0 0 0 0.403922 0 0 0 0 0.403922 0 0 0 0 0.470588 0 0 0 0.43 0"/>
<feBlend mode="normal" in2="BackgroundImageFix" result="effect1_dropShadow_1_760"/>
<feBlend mode="normal" in="SourceGraphic" in2="effect1_dropShadow_1_760" result="shape"/>
</filter>
</defs>
</svg>
