<svg width="18" height="18" viewBox="0 0 18 18" fill="none" xmlns="http://www.w3.org/2000/svg">
<path d="M8.99996 0.666656C11.2641 0.666656 11.5466 0.67499 12.435 0.716656C13.3225 0.758323 13.9266 0.89749 14.4583 1.10416C15.0083 1.31582 15.4716 1.60249 15.935 2.06499C16.3587 2.48157 16.6866 2.98548 16.8958 3.54166C17.1016 4.07249 17.2416 4.67749 17.2833 5.56499C17.3225 6.45332 17.3333 6.73582 17.3333 8.99999C17.3333 11.2642 17.325 11.5467 17.2833 12.435C17.2416 13.3225 17.1016 13.9267 16.8958 14.4583C16.6872 15.0148 16.3592 15.5188 15.935 15.935C15.5183 16.3586 15.0144 16.6865 14.4583 16.8958C13.9275 17.1017 13.3225 17.2417 12.435 17.2833C11.5466 17.3225 11.2641 17.3333 8.99996 17.3333C6.73579 17.3333 6.45329 17.325 5.56496 17.2833C4.67746 17.2417 4.07329 17.1017 3.54163 16.8958C2.98523 16.6871 2.48123 16.3591 2.06496 15.935C1.64113 15.5185 1.31324 15.0145 1.10413 14.4583C0.897459 13.9275 0.758293 13.3225 0.716626 12.435C0.677459 11.5467 0.666626 11.2642 0.666626 8.99999C0.666626 6.73582 0.674959 6.45332 0.716626 5.56499C0.758293 4.67666 0.897459 4.07332 1.10413 3.54166C1.31266 2.98514 1.64063 2.48109 2.06496 2.06499C2.48135 1.64102 2.98532 1.3131 3.54163 1.10416C4.07329 0.89749 4.67663 0.758323 5.56496 0.716656C6.45329 0.67749 6.73579 0.666656 8.99996 0.666656ZM8.99996 4.83332C7.89489 4.83332 6.83508 5.27231 6.05368 6.05371C5.27228 6.83511 4.83329 7.89492 4.83329 8.99999C4.83329 10.1051 5.27228 11.1649 6.05368 11.9463C6.83508 12.7277 7.89489 13.1667 8.99996 13.1667C10.105 13.1667 11.1648 12.7277 11.9462 11.9463C12.7276 11.1649 13.1666 10.1051 13.1666 8.99999C13.1666 7.89492 12.7276 6.83511 11.9462 6.05371C11.1648 5.27231 10.105 4.83332 8.99996 4.83332ZM14.4166 4.62499C14.4166 4.34872 14.3069 4.08377 14.1115 3.88842C13.9162 3.69307 13.6512 3.58332 13.375 3.58332C13.0987 3.58332 12.8337 3.69307 12.6384 3.88842C12.443 4.08377 12.3333 4.34872 12.3333 4.62499C12.3333 4.90126 12.443 5.16621 12.6384 5.36156C12.8337 5.55691 13.0987 5.66666 13.375 5.66666C13.6512 5.66666 13.9162 5.55691 14.1115 5.36156C14.3069 5.16621 14.4166 4.90126 14.4166 4.62499ZM8.99996 6.49999C9.663 6.49999 10.2989 6.76338 10.7677 7.23222C11.2366 7.70106 11.5 8.33695 11.5 8.99999C11.5 9.66303 11.2366 10.2989 10.7677 10.7678C10.2989 11.2366 9.663 11.5 8.99996 11.5C8.33692 11.5 7.70103 11.2366 7.23219 10.7678C6.76335 10.2989 6.49996 9.66303 6.49996 8.99999C6.49996 8.33695 6.76335 7.70106 7.23219 7.23222C7.70103 6.76338 8.33692 6.49999 8.99996 6.49999Z" fill="#4B4B58"/>
</svg>
