<svg width="24" height="24" viewBox="0 0 24 24" fill="none" xmlns="http://www.w3.org/2000/svg">
<path fill-rule="evenodd" clip-rule="evenodd" d="M21.75 7C21.75 4.37665 19.6234 2.25 17 2.25H7C4.37665 2.25 2.25 4.37665 2.25 7V14C2.25 16.6234 4.37665 18.75 7 18.75H9.375L11.4 21.45C11.5416 21.6389 11.7639 21.75 12 21.75C12.2361 21.75 12.4584 21.6389 12.6 21.45L14.625 18.75H17C19.6234 18.75 21.75 16.6234 21.75 14V7ZM16 11.5C15.44 11.5 15 11.05 15 10.5C15 9.95 15.45 9.5 16 9.5C16.55 9.5 17 9.95 17 10.5C17 11.05 16.56 11.5 16 11.5ZM12 11.5C11.44 11.5 11 11.05 11 10.5C11 9.95 11.45 9.5 12 9.5C12.55 9.5 13 9.95 13 10.5C13 11.05 12.56 11.5 12 11.5ZM7 10.5C7 11.05 7.44 11.5 8 11.5C8.56 11.5 9 11.05 9 10.5C9 9.95 8.55 9.5 8 9.5C7.45 9.5 7 9.95 7 10.5Z" fill="#4B4B58"/>
</svg>
