<svg width="54" height="55" viewBox="0 0 54 55" fill="none" xmlns="http://www.w3.org/2000/svg">
<g filter="url(#filter0_d_1_755)">
<path d="M22 13.56C22.2725 13.5208 22.5508 13.5 22.8333 13.5H31.1667C31.4492 13.5 31.7275 13.5208 32 13.56V21H29.5C29.5 19.6217 28.3783 18.5 27 18.5C25.6217 18.5 24.5 19.6217 24.5 21H22V13.56ZM33.6667 21H37V19.3333C37 17.0108 35.6358 15.0017 33.6667 14.0633V21ZM29.5 22.6667V23.5C29.5 24.8783 28.3783 26 27 26C25.6217 26 24.5 24.8783 24.5 23.5V22.6667H17V29.3333C17 31.345 18.4342 33.0292 20.3333 33.4158V25.1667C20.3333 24.7067 20.7058 24.3333 21.1667 24.3333C21.6275 24.3333 22 24.7067 22 25.1667V33.5H32V25.1667C32 24.7067 32.3725 24.3333 32.8333 24.3333C33.2942 24.3333 33.6667 24.7067 33.6667 25.1667V33.4158C35.5658 33.0283 37 31.345 37 29.3333V22.6667H29.5ZM20.3333 21V14.0633C18.3642 15.0017 17 17.0108 17 19.3333V21H20.3333ZM27 24.3333C27.46 24.3333 27.8333 23.9592 27.8333 23.5V21C27.8333 20.5408 27.46 20.1667 27 20.1667C26.54 20.1667 26.1667 20.5408 26.1667 21V23.5C26.1667 23.9592 26.54 24.3333 27 24.3333Z" fill="#9F65FF"/>
</g>
<defs>
<filter id="filter0_d_1_755" x="-1.6" y="-1.1" width="57.2" height="57.2" filterUnits="userSpaceOnUse" color-interpolation-filters="sRGB">
<feFlood flood-opacity="0" result="BackgroundImageFix"/>
<feColorMatrix in="SourceAlpha" type="matrix" values="0 0 0 0 0 0 0 0 0 0 0 0 0 0 0 0 0 0 127 0" result="hardAlpha"/>
<feOffset dy="4"/>
<feGaussianBlur stdDeviation="8.3"/>
<feComposite in2="hardAlpha" operator="out"/>
<feColorMatrix type="matrix" values="0 0 0 0 0.403922 0 0 0 0 0.403922 0 0 0 0 0.470588 0 0 0 0.43 0"/>
<feBlend mode="normal" in2="BackgroundImageFix" result="effect1_dropShadow_1_755"/>
<feBlend mode="normal" in="SourceGraphic" in2="effect1_dropShadow_1_755" result="shape"/>
</filter>
</defs>
</svg>
