<svg width="20" height="14" viewBox="0 0 20 14" fill="none" xmlns="http://www.w3.org/2000/svg">
<path d="M19.58 2.16936C19.4639 1.7542 19.2425 1.37605 18.9373 1.07154C18.6322 0.767036 18.2535 0.546482 17.8381 0.431238C16.2787 0.0143632 10.01 0.0143633 10.01 0.0143633C10.01 0.0143633 3.75311 0.00436317 2.17749 0.431238C1.76274 0.546988 1.38486 0.767774 1.08038 1.07225C0.775899 1.37673 0.555114 1.75461 0.439364 2.16936C0.143238 3.76575 -0.0026077 5.38638 0.00373853 7.00999C0.000849095 8.62579 0.146672 10.2384 0.439364 11.8275C0.555488 12.2425 0.776339 12.6206 1.08071 12.9256C1.38509 13.2307 1.76277 13.4523 2.17749 13.5694C3.73686 13.9862 10.01 13.9862 10.01 13.9862C10.01 13.9862 16.2631 13.9862 17.8381 13.5694C18.2535 13.4528 18.6319 13.2314 18.937 12.9264C19.242 12.6213 19.4635 12.2429 19.58 11.8275C19.8669 10.2394 20.0069 8.62436 19.9969 7.00999C20.0069 5.38499 19.87 3.76749 19.58 2.16936ZM8.00749 10.0019V4.00499L13.2256 7.00999L8.00749 10.0019Z" fill="#4B4B58"/>
</svg>
